<svg width="24" height="24" viewBox="0 0 24 24" fill="none" xmlns="http://www.w3.org/2000/svg">
<path d="M22.7812 0.28125H1.21875C0.700195 0.28125 0.28125 0.700195 0.28125 1.21875V22.7812C0.28125 23.2998 0.700195 23.7188 1.21875 23.7188H22.7812C23.2998 23.7188 23.7188 23.2998 23.7188 22.7812V1.21875C23.7188 0.700195 23.2998 0.28125 22.7812 0.28125ZM21.8438 21.8438H16.4502V14.6426H19.4971L19.9541 11.1064H16.4502V8.84766C16.4502 7.82227 16.7344 7.125 18.2021 7.125H20.0742V3.96094C19.749 3.91699 18.6387 3.82031 17.3438 3.82031C14.6426 3.82031 12.7939 5.46973 12.7939 8.49609V11.1035H9.74121V14.6396H12.7969V21.8438H2.15625V2.15625H21.8438V21.8438Z" fill="#811E78"/>
</svg>
