<svg width="24" height="24" viewBox="0 0 24 24" fill="none" xmlns="http://www.w3.org/2000/svg">
<path d="M11.9999 5.99111C8.6747 5.99111 5.99111 8.6747 5.99111 11.9999C5.99111 15.3251 8.6747 18.0087 11.9999 18.0087C15.3251 18.0087 18.0087 15.3251 18.0087 11.9999C18.0087 8.6747 15.3251 5.99111 11.9999 5.99111ZM11.9999 15.9052C9.8495 15.9052 8.09462 14.1503 8.09462 11.9999C8.09462 9.8495 9.8495 8.09462 11.9999 8.09462C14.1503 8.09462 15.9052 9.8495 15.9052 11.9999C15.9052 14.1503 14.1503 15.9052 11.9999 15.9052ZM18.2548 4.34462C17.4784 4.34462 16.8515 4.97157 16.8515 5.74794C16.8515 6.52431 17.4784 7.15126 18.2548 7.15126C19.0311 7.15126 19.6581 6.52724 19.6581 5.74794C19.6583 5.56359 19.6222 5.381 19.5517 5.21064C19.4813 5.04028 19.3779 4.88549 19.2476 4.75513C19.1172 4.62477 18.9624 4.52141 18.7921 4.45097C18.6217 4.38053 18.4391 4.34439 18.2548 4.34462ZM23.7128 11.9999C23.7128 10.3827 23.7274 8.78017 23.6366 7.16591C23.5458 5.29091 23.1181 3.62685 21.747 2.25575C20.3729 0.881731 18.7118 0.456926 16.8368 0.366106C15.2196 0.275285 13.6171 0.289934 12.0028 0.289934C10.3856 0.289934 8.7831 0.275285 7.16884 0.366106C5.29384 0.456926 3.62978 0.88466 2.25868 2.25575C0.88466 3.62978 0.459856 5.29091 0.369035 7.16591C0.278215 8.7831 0.292864 10.3856 0.292864 11.9999C0.292864 13.6142 0.278215 15.2196 0.369035 16.8339C0.459856 18.7089 0.88759 20.3729 2.25868 21.744C3.63271 23.1181 5.29384 23.5429 7.16884 23.6337C8.78603 23.7245 10.3886 23.7099 12.0028 23.7099C13.62 23.7099 15.2226 23.7245 16.8368 23.6337C18.7118 23.5429 20.3759 23.1151 21.747 21.744C23.121 20.37 23.5458 18.7089 23.6366 16.8339C23.7304 15.2196 23.7128 13.6171 23.7128 11.9999ZM21.1347 18.9081C20.9208 19.4413 20.663 19.8397 20.2499 20.2499C19.8368 20.663 19.4413 20.9208 18.9081 21.1347C17.3671 21.747 13.7079 21.6093 11.9999 21.6093C10.2919 21.6093 6.62978 21.747 5.08876 21.1376C4.55556 20.9237 4.15712 20.6659 3.74697 20.2528C3.33388 19.8397 3.07607 19.4442 2.8622 18.911C2.25282 17.3671 2.39052 13.7079 2.39052 11.9999C2.39052 10.2919 2.25282 6.62978 2.8622 5.08876C3.07607 4.55556 3.33388 4.15712 3.74697 3.74697C4.16005 3.33681 4.55556 3.07607 5.08876 2.8622C6.62978 2.25282 10.2919 2.39052 11.9999 2.39052C13.7079 2.39052 17.37 2.25282 18.911 2.8622C19.4442 3.07607 19.8427 3.33388 20.2528 3.74697C20.6659 4.16005 20.9237 4.55556 21.1376 5.08876C21.747 6.62978 21.6093 10.2919 21.6093 11.9999C21.6093 13.7079 21.747 17.3671 21.1347 18.9081Z" fill="#811E78"/>
</svg>
