<svg width="881" height="493" viewBox="0 0 881 493" fill="none" xmlns="http://www.w3.org/2000/svg">
<path d="M118.582 323.94C119.433 323.425 120.331 322.998 121.255 322.54C129.682 317.339 138.478 312.76 147.572 308.841C170.899 298.276 195.549 290.914 220.85 286.957C221.754 286.819 222.659 286.778 223.555 286.691C236.803 284.491 250.213 283.405 263.643 283.445C281.118 283.321 298.568 284.794 315.775 287.846C316.552 287.984 317.324 288.271 318.096 288.489C326.098 289.648 334.009 291.373 341.768 293.651C360.436 298.619 378.534 305.523 395.767 314.253C400.3 316.547 404.624 319.086 409.036 321.509C423.026 328.209 438.246 331.959 453.748 332.525C465.673 332.709 477.56 331.13 489.024 327.84C498.509 324.659 507.589 320.378 516.078 315.083C524.74 309.513 532.668 302.877 539.677 295.331C541.454 293.417 543.401 291.654 545.28 289.822C547.2 287.362 549.407 285.141 551.853 283.204C564.617 271.417 578.833 261.307 594.156 253.118C596.19 252.047 598.244 250.997 600.286 249.941C608.789 245.249 617.716 241.368 626.947 238.35C651.357 229.788 677.116 225.716 702.976 226.331C703.982 226.344 704.983 226.505 705.988 226.586C717.416 226.753 728.802 228.008 739.992 230.335C758.886 233.973 777.204 240.134 794.456 248.652C794.914 248.838 795.325 249.17 795.754 249.426C806.124 254.238 815.984 260.081 825.186 266.865C859.118 291.048 885.362 324.497 900.777 363.209C904.106 371.141 906.774 379.333 908.754 387.704C912.073 399.283 914.263 411.157 915.292 423.159C915.65 426.68 915.815 430.205 916.09 433.76C916.224 436.966 917.199 440.08 918.918 442.789C920.637 445.498 923.038 447.708 925.881 449.195C957.981 467.063 981.393 492.917 995.738 526.616C1009.39 558.143 1012.2 593.307 1003.74 626.604C996.091 657.957 980.503 684.753 956.554 706.371C923.809 735.904 885.199 749.658 841.093 747.935C840.393 747.91 839.693 747.748 838.993 747.655C838.594 747.714 838.189 747.728 837.787 747.697C827.909 745.878 819.084 752.96 818.578 764.684C817.296 790.81 815.545 816.949 813.582 843.07C812.382 856.263 809.869 869.303 806.081 881.997C803.215 892.425 799.444 902.582 794.811 912.354C773.69 956.344 742.151 990.371 698.027 1012.1C682.657 1019.65 666.402 1025.24 649.643 1028.75C648.565 1028.99 647.462 1029.11 646.368 1029.28C634.522 1031.82 622.449 1033.16 610.335 1033.27C590.429 1033.76 570.562 1031.3 551.375 1025.97C540.234 1023.07 529.377 1019.17 518.938 1014.31C498.207 1004.94 479.163 992.215 462.573 976.647C462.086 976.141 461.628 975.608 461.201 975.05C455.45 969.335 449.838 963.513 444.68 957.247C436.62 947.588 429.467 937.208 423.31 926.238C417.405 916.163 412.323 905.627 408.113 894.735C403.971 884.131 397.136 874.79 388.284 867.632C387.755 867.185 387.311 866.663 386.774 866.171C369.293 853.415 349.974 848.904 328.714 853.332C321.259 854.864 313.924 856.567 306.386 857.395C294.558 859.291 282.605 860.311 270.627 860.448C251.167 860.904 231.712 859.359 212.568 855.836C211.779 855.693 211.01 855.434 210.238 855.216C201.372 853.784 192.619 851.729 184.042 849.069C162.373 842.723 141.533 833.828 121.961 822.569C121.354 822.213 120.814 821.761 120.243 821.351C89.8296 803.642 62.9577 780.455 40.9854 752.964C40.6144 752.499 40.279 751.979 39.934 751.484C34.9542 744.511 29.8069 737.648 25.0325 730.54C19.2747 721.953 14.4649 712.85 9.48835 703.719C-4.7191 677.442 -13.5244 649.441 -18.587 620.133C-25.5287 580.1 -23.6611 539.036 -13.1144 499.798C7.09602 423.516 51.2642 365.029 118.582 323.94Z" fill="url(#paint0_linear)"/>
<defs>
<linearGradient id="paint0_linear" x1="340.762" y1="942.072" x2="647.437" y2="188.236" gradientUnits="userSpaceOnUse">
<stop stop-color="#FFCB52"/>
<stop offset="1" stop-color="#FF7B02"/>
</linearGradient>
</defs>
</svg>
